@startuml
class Robot {
  - String id_
  - String room_id_
  - enum size_
  - enum status_
  - enum type_
  - int battery_
  + go_home(): void
  + kill_battery(): void
  + charge_battery(): void
}

enum Type {
    Mop
    Scrub
    Vaccuum
}

enum Status {
    Free
    Busy
    Broken
    Dead
    Offline
}

enum Size {
    Small
    Medium
    Large
}

interface CommandLine {}

Management "1" o--> "0...n" Room
Management "1" o--> "0...n" Robot
Robot "1" *--> "1" Type
Robot "1" *--> "1" Status
Room "1" *--> "1" Size
Robot "1" *--> "1" Size
Management ..|> CommandLine
@enduml